<mxfile host="app.diagrams.net" modified="2021-02-27T12:26:15.236Z" agent="5.0 (Windows NT 10.0; Win64; x64) AppleWebKit/537.36 (KHTML, like Gecko) Chrome/88.0.4324.182 Safari/537.36 Edg/88.0.705.74" etag="dIZn3ABLOdIrkQ0boRjN" version="14.4.3" type="github">
  <diagram id="UCaEe1Fx9s7038YAoPgt" name="Page-1">
    <mxGraphModel dx="728" dy="792" grid="1" gridSize="10" guides="1" tooltips="1" connect="1" arrows="1" fold="1" page="1" pageScale="1" pageWidth="827" pageHeight="1169" math="0" shadow="0">
      <root>
        <mxCell id="0" />
        <mxCell id="1" parent="0" />
        <mxCell id="M2nxotef--lqrL7a7i8n-3" style="edgeStyle=orthogonalEdgeStyle;rounded=0;orthogonalLoop=1;jettySize=auto;html=1;exitX=0.5;exitY=1;exitDx=0;exitDy=0;entryX=0.5;entryY=0;entryDx=0;entryDy=0;" edge="1" parent="1" source="M2nxotef--lqrL7a7i8n-1" target="M2nxotef--lqrL7a7i8n-2">
          <mxGeometry relative="1" as="geometry" />
        </mxCell>
        <mxCell id="M2nxotef--lqrL7a7i8n-1" value="Home.html" style="rounded=1;whiteSpace=wrap;html=1;" vertex="1" parent="1">
          <mxGeometry x="300" y="240" width="120" height="60" as="geometry" />
        </mxCell>
        <mxCell id="M2nxotef--lqrL7a7i8n-5" value="ja" style="edgeStyle=orthogonalEdgeStyle;rounded=0;orthogonalLoop=1;jettySize=auto;html=1;exitX=0;exitY=1;exitDx=0;exitDy=0;entryX=0.5;entryY=0;entryDx=0;entryDy=0;" edge="1" parent="1" source="M2nxotef--lqrL7a7i8n-2" target="M2nxotef--lqrL7a7i8n-4">
          <mxGeometry relative="1" as="geometry" />
        </mxCell>
        <mxCell id="M2nxotef--lqrL7a7i8n-7" value="nee" style="edgeStyle=orthogonalEdgeStyle;rounded=0;orthogonalLoop=1;jettySize=auto;html=1;exitX=1;exitY=1;exitDx=0;exitDy=0;entryX=0.5;entryY=0;entryDx=0;entryDy=0;" edge="1" parent="1" source="M2nxotef--lqrL7a7i8n-2" target="M2nxotef--lqrL7a7i8n-6">
          <mxGeometry relative="1" as="geometry" />
        </mxCell>
        <mxCell id="M2nxotef--lqrL7a7i8n-2" value="ingelogd?" style="rhombus;whiteSpace=wrap;html=1;" vertex="1" parent="1">
          <mxGeometry x="320" y="340" width="80" height="80" as="geometry" />
        </mxCell>
        <mxCell id="M2nxotef--lqrL7a7i8n-4" value="/user" style="rounded=1;whiteSpace=wrap;html=1;" vertex="1" parent="1">
          <mxGeometry x="140" y="830" width="120" height="60" as="geometry" />
        </mxCell>
        <mxCell id="M2nxotef--lqrL7a7i8n-9" style="edgeStyle=orthogonalEdgeStyle;rounded=0;orthogonalLoop=1;jettySize=auto;html=1;exitX=0.5;exitY=1;exitDx=0;exitDy=0;entryX=0.5;entryY=0;entryDx=0;entryDy=0;" edge="1" parent="1" source="M2nxotef--lqrL7a7i8n-6" target="M2nxotef--lqrL7a7i8n-8">
          <mxGeometry relative="1" as="geometry" />
        </mxCell>
        <mxCell id="M2nxotef--lqrL7a7i8n-6" value="/login" style="rounded=1;whiteSpace=wrap;html=1;" vertex="1" parent="1">
          <mxGeometry x="420" y="420" width="120" height="60" as="geometry" />
        </mxCell>
        <mxCell id="M2nxotef--lqrL7a7i8n-12" value="inloggen" style="edgeStyle=orthogonalEdgeStyle;rounded=0;orthogonalLoop=1;jettySize=auto;html=1;exitX=1;exitY=1;exitDx=0;exitDy=0;entryX=1;entryY=0.5;entryDx=0;entryDy=0;" edge="1" parent="1" source="M2nxotef--lqrL7a7i8n-8" target="M2nxotef--lqrL7a7i8n-4">
          <mxGeometry relative="1" as="geometry">
            <mxPoint x="600" y="625" as="targetPoint" />
            <Array as="points">
              <mxPoint x="550" y="605" />
              <mxPoint x="550" y="860" />
            </Array>
          </mxGeometry>
        </mxCell>
        <mxCell id="M2nxotef--lqrL7a7i8n-13" value="register" style="edgeStyle=orthogonalEdgeStyle;rounded=0;orthogonalLoop=1;jettySize=auto;html=1;exitX=0;exitY=1;exitDx=0;exitDy=0;entryX=0.433;entryY=-0.017;entryDx=0;entryDy=0;entryPerimeter=0;" edge="1" parent="1" source="M2nxotef--lqrL7a7i8n-8" target="M2nxotef--lqrL7a7i8n-10">
          <mxGeometry relative="1" as="geometry" />
        </mxCell>
        <mxCell id="M2nxotef--lqrL7a7i8n-8" value="account?" style="rhombus;whiteSpace=wrap;html=1;" vertex="1" parent="1">
          <mxGeometry x="440" y="545" width="80" height="80" as="geometry" />
        </mxCell>
        <mxCell id="M2nxotef--lqrL7a7i8n-16" style="edgeStyle=orthogonalEdgeStyle;rounded=0;orthogonalLoop=1;jettySize=auto;html=1;exitX=0.5;exitY=1;exitDx=0;exitDy=0;entryX=0.5;entryY=0;entryDx=0;entryDy=0;" edge="1" parent="1" source="M2nxotef--lqrL7a7i8n-10" target="M2nxotef--lqrL7a7i8n-14">
          <mxGeometry relative="1" as="geometry" />
        </mxCell>
        <mxCell id="M2nxotef--lqrL7a7i8n-10" value="/register" style="rounded=1;whiteSpace=wrap;html=1;" vertex="1" parent="1">
          <mxGeometry x="300" y="625" width="120" height="60" as="geometry" />
        </mxCell>
        <mxCell id="M2nxotef--lqrL7a7i8n-17" style="edgeStyle=orthogonalEdgeStyle;rounded=0;orthogonalLoop=1;jettySize=auto;html=1;exitX=0.5;exitY=1;exitDx=0;exitDy=0;entryX=0;entryY=0.5;entryDx=0;entryDy=0;" edge="1" parent="1" source="M2nxotef--lqrL7a7i8n-14" target="M2nxotef--lqrL7a7i8n-6">
          <mxGeometry relative="1" as="geometry">
            <mxPoint x="360" y="810" as="targetPoint" />
            <Array as="points">
              <mxPoint x="360" y="800" />
              <mxPoint x="270" y="800" />
              <mxPoint x="270" y="520" />
              <mxPoint x="400" y="520" />
              <mxPoint x="400" y="450" />
            </Array>
          </mxGeometry>
        </mxCell>
        <mxCell id="M2nxotef--lqrL7a7i8n-14" value="account maken" style="rounded=1;whiteSpace=wrap;html=1;" vertex="1" parent="1">
          <mxGeometry x="300" y="720" width="120" height="60" as="geometry" />
        </mxCell>
      </root>
    </mxGraphModel>
  </diagram>
</mxfile>
